# Blender 4.2.3 LTS
# www.blender.org
o model_0
v 0.533056 -0.395150 0.250532
v 0.533056 0.395151 0.250532
v -0.533056 -0.395150 0.250532
v -0.533056 0.395151 0.250532
v -0.533056 0.395151 -0.250532
v -0.533056 0.395151 0.250532
v 0.533056 0.395151 -0.250532
v 0.533056 0.395151 0.250532
v -0.533056 0.395151 -0.250532
v -0.533056 -0.395150 -0.250531
v -0.533056 0.395151 0.250532
v -0.533056 -0.395150 0.250532
v 0.533056 0.395151 0.250532
v 0.533056 -0.395150 0.250532
v 0.533056 0.395151 -0.250532
v 0.533056 -0.395150 -0.250531
v 0.533056 -0.395150 -0.250531
v 0.533056 -0.395150 0.250532
v -0.533056 -0.395150 -0.250531
v -0.533056 -0.395150 0.250532
v 0.533056 0.395151 -0.250532
v 0.533056 -0.395150 -0.250531
v -0.533056 0.395151 -0.250532
v -0.533056 -0.395150 -0.250531
vn -0.0000 -0.0000 1.0000
vn -0.0000 -0.0000 -1.0000
vn -0.0000 -1.0000 0.0035
vn -0.0000 1.0000 0.0035
vn 1.0000 -0.0000 0.0047
vn -1.0000 -0.0000 0.0047
vt 0.327865 0.341055
vt 0.327865 0.658949
vt 0.010000 0.341055
vt 0.010000 0.658949
vt 0.344838 0.341055
vt 0.662702 0.341055
vt 0.662702 0.658949
vt 0.344838 0.658949
vt 0.327865 0.990004
vt 0.010000 0.990004
vt 0.010000 0.672110
vt 0.327865 0.672110
vt 0.344838 0.327894
vt 0.344838 0.010000
vt 0.662702 0.327894
vt 0.662702 0.010000
vt 0.010000 0.010000
vt 0.327865 0.010000
vt 0.327865 0.327894
vt 0.010000 0.327894
vt 0.344838 0.672110
vt 0.662702 0.672110
vt 0.662702 0.990004
vt 0.344838 0.990004
s 0
usemtl Matériau
f 1/1/1 2/2/1 3/3/1
f 2/2/1 4/4/1 3/3/1
f 22/5/2 24/6/2 23/7/2
f 21/8/2 22/5/2 23/7/2
f 18/9/3 20/10/3 19/11/3
f 17/12/3 18/9/3 19/11/3
f 5/13/4 6/14/4 7/15/4
f 6/14/4 8/16/4 7/15/4
f 14/17/5 16/18/5 15/19/5
f 13/20/5 14/17/5 15/19/5
f 10/21/6 12/22/6 11/23/6
f 9/24/6 10/21/6 11/23/6
