# Blender 4.2.3 LTS
# www.blender.org
o Cube
v -0.903315 -0.951080 0.915860
v -0.903315 -0.036967 0.915860
v -0.831856 -0.213819 -1.000000
v -0.831856 0.888585 -1.000000
v 0.903315 -0.951080 0.915860
v 0.903315 -0.036967 0.915860
v 0.831856 -0.213819 -1.000000
v 0.831856 0.888585 -1.000000
v -0.730095 -0.146391 -19.398500
v -0.730095 0.821155 -19.398500
v 0.730095 -0.146391 -19.398500
v 0.730095 0.821155 -19.398500
v -0.681908 -1.809068 1.998742
v -0.681908 -1.119009 1.998742
v 0.681908 -1.809068 1.998742
v 0.681908 -1.119009 1.998742
v 0.000000 -0.325234 -1.000000
v 0.000000 1.000000 -1.000000
v 0.000000 -0.951080 0.915860
v 0.000000 -0.036967 0.915860
v 0.000000 -0.146391 -19.398500
v 0.000000 0.821155 -19.398500
v 0.000000 -1.809068 1.998742
v 0.000000 -1.119009 1.998742
vn -0.9993 -0.0000 -0.0373
vn -0.0000 1.0000 -0.0097
vn 0.9993 -0.0000 -0.0373
vn -0.9797 -0.0000 0.2003
vn -0.0000 -0.9506 -0.3105
vn -0.0000 0.8794 0.4760
vn -0.0000 -0.0000 -1.0000
vn -1.0000 -0.0000 -0.0055
vn 1.0000 -0.0000 -0.0055
vn -0.0000 -1.0000 -0.0097
vn -0.0000 -0.0000 1.0000
vn -0.0000 -0.7838 -0.6210
vn -0.0000 0.7074 0.7068
vn 0.9797 -0.0000 0.2003
vn 0.1327 -0.9911 -0.0044
vn 0.1200 0.8957 0.4282
vn -0.1238 -0.9245 -0.3604
vn -0.1327 0.9911 -0.0044
vn 0.1327 0.9911 -0.0044
vn 0.1238 -0.9245 -0.3604
vn -0.1200 0.8957 0.4282
vn -0.1327 -0.9911 -0.0044
vt 0.421762 0.720135
vt 0.281592 0.860305
vt 0.281592 0.720135
vt 0.970237 0.970682
vt 0.531639 0.527318
vt 0.970237 0.527318
vt 0.141987 0.860725
vt 0.281599 1.000337
vt 0.141987 1.000337
vt 0.070190 0.935786
vt 0.465495 0.540481
vt 0.465495 0.935786
vt 0.072181 0.860725
vt 0.072181 1.000337
vt 0.351405 0.860725
vt 0.421212 1.000337
vt 0.351405 1.000337
vt 0.625000 0.375000
vt 0.375000 0.500000
vt 0.375000 0.375000
vt 0.974370 0.525669
vt 0.521693 0.978346
vt 0.521693 0.525669
vt 0.505788 0.996219
vt 0.990274 0.511733
vt 0.990274 0.996219
vt 0.988667 0.972570
vt 0.513388 0.535312
vt 0.988667 0.535312
vt 0.143187 0.715432
vt 0.000937 0.786557
vt 0.000937 0.715432
vt 0.071961 0.644020
vt 0.143480 0.500980
vt 0.071961 0.500980
vt 0.358039 0.644020
vt 0.429559 0.500980
vt 0.358039 0.500980
vt 0.143480 0.644020
vt 0.286520 0.500980
vt 0.286520 0.644020
vt 0.000441 0.500980
vt 0.000441 0.644020
vt 0.143187 0.644308
vt 0.000937 0.644308
vt 0.532509 0.980290
vt 0.981436 0.523623
vt 0.981436 0.980290
vt 0.625000 0.250000
vt 0.375000 0.250000
vt 0.281599 0.860725
vt 0.002375 1.000337
vt 0.002375 0.860725
vt 0.529332 0.976960
vt 0.968573 0.532946
vt 0.968573 0.976960
vt 0.421762 0.860305
vt 0.531639 0.970682
vt 0.070190 0.540481
vt 0.421212 0.860725
vt 0.625000 0.500000
vt 0.974370 0.978346
vt 0.505788 0.511733
vt 0.513388 0.972570
vt 0.143187 0.786557
vt 0.429559 0.644020
vt 0.532509 0.523623
vt 0.529332 0.532946
s 0
usemtl Material.001
f 2/1/1 3/2/1 1/3/1
f 18/4/2 12/5/2 22/6/2
f 7/7/3 6/8/3 5/9/3
f 1/10/4 14/11/4 2/12/4
f 17/13/5 5/9/5 19/14/5
f 18/15/6 2/16/6 20/17/6
f 22/18/7 11/19/7 21/20/7
f 4/21/8 9/22/8 3/23/8
f 7/24/9 12/25/9 8/26/9
f 17/27/10 9/28/10 21/29/10
f 24/30/11 13/31/11 23/32/11
f 19/33/12 15/34/12 23/35/12
f 20/36/13 14/37/13 24/38/13
f 5/39/14 16/40/14 15/34/14
f 20/36/13 16/40/13 6/41/13
f 19/33/12 13/42/12 1/43/12
f 16/44/11 23/32/11 15/45/11
f 17/46/15 11/47/15 7/48/15
f 10/49/7 21/20/7 9/50/7
f 18/15/16 6/8/16 8/51/16
f 17/13/17 1/52/17 3/53/17
f 18/54/18 10/55/18 4/56/18
f 2/1/1 4/57/1 3/2/1
f 18/4/19 8/58/19 12/5/19
f 7/7/3 8/51/3 6/8/3
f 1/10/4 13/59/4 14/11/4
f 17/13/20 7/7/20 5/9/20
f 18/15/21 4/60/21 2/16/21
f 22/18/7 12/61/7 11/19/7
f 4/21/8 10/62/8 9/22/8
f 7/24/9 11/63/9 12/25/9
f 17/27/22 3/64/22 9/28/22
f 24/30/11 14/65/11 13/31/11
f 19/33/12 5/39/12 15/34/12
f 20/36/13 2/66/13 14/37/13
f 5/39/14 6/41/14 16/40/14
f 20/36/13 24/38/13 16/40/13
f 19/33/12 23/35/12 13/42/12
f 16/44/11 24/30/11 23/32/11
f 17/46/10 21/67/10 11/47/10
f 10/49/7 22/18/7 21/20/7
f 18/15/6 20/17/6 6/8/6
f 17/13/5 19/14/5 1/52/5
f 18/54/2 22/68/2 10/55/2
