# Blender 3.6.2
# www.blender.org
o 0_Cube.001
v -81.102486 31.707945 35.619518
v -82.136086 -65.891876 36.653156
v -81.102486 31.707947 44.176968
v -82.136086 -65.891876 43.143372
v -89.659935 31.707945 35.619518
v -88.626289 -65.891876 36.653156
v -89.659935 31.707947 44.176968
v -88.626289 -65.891876 43.143372
v 71.644554 31.707983 35.619518
v 72.678200 -65.891846 36.653156
v 71.644554 31.707985 44.176968
v 72.678200 -65.891838 43.143372
v 80.202003 31.707983 35.619518
v 79.168404 -65.891838 36.653156
v 80.202003 31.707985 44.176968
v 79.168404 -65.891838 43.143372
v -81.102486 31.707933 -35.619541
v -82.136086 -65.891891 -36.653133
v -81.102486 31.707932 -44.176991
v -82.136086 -65.891891 -43.143349
v -89.659935 31.707933 -35.619541
v -88.626289 -65.891891 -36.653133
v -89.659935 31.707932 -44.176991
v -88.626289 -65.891891 -43.143349
v 71.644554 31.707972 -35.619541
v 72.678200 -65.891853 -36.653133
v 71.644554 31.707970 -44.176991
v 72.678200 -65.891853 -43.143349
v 80.202003 31.707972 -35.619541
v 79.168404 -65.891846 -36.653133
v 80.202003 31.707970 -44.176991
v 79.168404 -65.891853 -43.143349
v 86.483192 38.572006 -48.310623
v -95.941124 30.483421 -48.310623
v 86.483192 38.572029 48.310600
v 86.483192 30.483467 -48.310623
v -95.941124 38.571960 -48.310623
v -95.941124 30.483444 48.310600
v -95.941124 38.571983 48.310600
v 86.483192 30.483490 48.310600
vn 0.9999 -0.0106 -0.0000
vn -0.0000 1.0000 -0.0000
vn -0.0000 -1.0000 -0.0000
vn -0.0000 -0.0106 0.9999
vn -0.9999 -0.0106 -0.0000
vn -0.0000 -0.0106 -0.9999
vn -0.0000 -0.0000 1.0000
vn -0.0000 -0.0000 -1.0000
vn 1.0000 -0.0000 -0.0000
vn -1.0000 -0.0000 -0.0000
vt 0.742393 0.646011
vt 0.739032 0.328592
vt 0.717925 0.328592
vt 0.714564 0.646011
vt 0.465708 0.632260
vt 0.465708 0.604430
vt 0.437879 0.604430
vt 0.437879 0.632260
vt 0.529542 0.625537
vt 0.529542 0.604430
vt 0.508436 0.604430
vt 0.508436 0.625537
vt 0.402601 0.632260
vt 0.430430 0.632260
vt 0.430430 0.604430
vt 0.402601 0.604430
vt 0.565547 0.625537
vt 0.586654 0.625537
vt 0.586654 0.604430
vt 0.565547 0.604430
vt 0.500987 0.604430
vt 0.473157 0.604430
vt 0.473157 0.632260
vt 0.500987 0.632260
vt 0.615209 0.604430
vt 0.594103 0.604430
vt 0.594103 0.625537
vt 0.615209 0.625537
vt 0.367322 0.604430
vt 0.367322 0.632260
vt 0.395152 0.632260
vt 0.395152 0.604430
vt 0.536992 0.604430
vt 0.536992 0.625537
vt 0.558098 0.625537
vt 0.558098 0.604430
vt 0.066833 0.921849
vt 0.063471 0.604430
vt 0.042365 0.604430
vt 0.039003 0.921849
vt 0.742393 0.321143
vt 0.739032 0.003725
vt 0.717925 0.003725
vt 0.714564 0.321143
vt 0.918785 0.321143
vt 0.915424 0.003725
vt 0.894317 0.003724
vt 0.890956 0.321143
vt 0.812950 0.646011
vt 0.809588 0.328592
vt 0.788482 0.328592
vt 0.785120 0.646011
vt 0.883507 0.646011
vt 0.880145 0.328592
vt 0.859039 0.328592
vt 0.855677 0.646011
vt 0.848228 0.646011
vt 0.844867 0.328592
vt 0.823760 0.328592
vt 0.820399 0.646011
vt 0.918785 0.646011
vt 0.915424 0.328592
vt 0.894317 0.328592
vt 0.890956 0.646011
vt 0.848228 0.321143
vt 0.844867 0.003724
vt 0.823760 0.003724
vt 0.820399 0.321143
vt 0.137389 0.921849
vt 0.134028 0.604430
vt 0.112921 0.604430
vt 0.109560 0.921849
vt 0.777671 0.646011
vt 0.774310 0.328592
vt 0.753203 0.328592
vt 0.749842 0.646011
vt 0.883507 0.321143
vt 0.880145 0.003725
vt 0.859039 0.003724
vt 0.855677 0.321143
vt 0.777671 0.321143
vt 0.774310 0.003724
vt 0.753203 0.003724
vt 0.749842 0.321143
vt 0.031554 0.921849
vt 0.028193 0.604430
vt 0.007086 0.604430
vt 0.003725 0.921849
vt 0.812950 0.321143
vt 0.809588 0.003725
vt 0.788482 0.003725
vt 0.785120 0.321143
vt 0.102111 0.921849
vt 0.098749 0.604430
vt 0.077643 0.604430
vt 0.074281 0.921849
vt 0.317944 0.596981
vt 0.317944 0.003725
vt 0.003725 0.003725
vt 0.003725 0.596981
vt 0.647061 0.596981
vt 0.673363 0.596981
vt 0.673363 0.003725
vt 0.647061 0.003725
vt 0.680812 0.596981
vt 0.707114 0.596981
vt 0.707114 0.003725
vt 0.680812 0.003725
vt 0.178590 0.918649
vt 0.204892 0.918649
vt 0.204892 0.604430
vt 0.178590 0.604430
vt 0.144838 0.918649
vt 0.171141 0.918649
vt 0.171141 0.604430
vt 0.144838 0.604430
vt 0.639612 0.003725
vt 0.325393 0.003725
vt 0.325393 0.596981
vt 0.639612 0.596981
s 0
f 3/1/1 4/2/1 2/3/1 1/4/1
f 3/5/2 1/6/2 5/7/2 7/8/2
f 8/9/3 6/10/3 2/11/3 4/12/3
f 11/13/2 15/14/2 13/15/2 9/16/2
f 16/17/3 12/18/3 10/19/3 14/20/3
f 19/21/2 23/22/2 21/23/2 17/24/2
f 24/25/3 20/26/3 18/27/3 22/28/3
f 27/29/2 25/30/2 29/31/2 31/32/2
f 32/33/3 30/34/3 26/35/3 28/36/3
f 7/37/4 8/38/4 4/39/4 3/40/4
f 5/41/5 6/42/5 8/43/5 7/44/5
f 1/45/6 2/46/6 6/47/6 5/48/6
f 17/49/1 18/50/1 20/51/1 19/52/1
f 19/53/6 20/54/6 24/55/6 23/56/6
f 23/57/5 24/58/5 22/59/5 21/60/5
f 21/61/4 22/62/4 18/63/4 17/64/4
f 27/65/5 28/66/5 26/67/5 25/68/5
f 31/69/6 32/70/6 28/71/6 27/72/6
f 29/73/1 30/74/1 32/75/1 31/76/1
f 25/77/4 26/78/4 30/79/4 29/80/4
f 9/81/5 10/82/5 12/83/5 11/84/5
f 11/85/4 12/86/4 16/87/4 15/88/4
f 15/89/1 16/90/1 14/91/1 13/92/1
f 13/93/6 14/94/6 10/95/6 9/96/6
f 33/97/2 37/98/2 39/99/2 35/100/2
f 39/101/7 38/102/7 40/103/7 35/104/7
f 33/105/8 36/106/8 34/107/8 37/108/8
f 35/109/9 40/110/9 36/111/9 33/112/9
f 37/113/10 34/114/10 38/115/10 39/116/10
f 36/117/3 40/118/3 38/119/3 34/120/3
o UCX_1_Cube.002
v -95.984009 30.371178 48.381153
v -95.984009 38.586044 48.381153
v -95.984009 30.371155 -48.381176
v -95.984009 38.586025 -48.381176
v 86.526077 30.371220 48.381153
v 86.526077 38.586090 48.381153
v 86.526077 30.371201 -48.381176
v 86.526077 38.586067 -48.381176
vn -1.0000 -0.0000 -0.0000
vn -0.0000 -0.0000 -1.0000
vn 1.0000 -0.0000 -0.0000
vn -0.0000 -0.0000 1.0000
vn -0.0000 -1.0000 -0.0000
vn -0.0000 1.0000 -0.0000
vt 0.375000 0.000000
vt 0.625000 0.000000
vt 0.625000 0.250000
vt 0.375000 0.250000
vt 0.625000 0.500000
vt 0.375000 0.500000
vt 0.625000 0.750000
vt 0.375000 0.750000
vt 0.625000 1.000000
vt 0.375000 1.000000
vt 0.125000 0.500000
vt 0.125000 0.750000
vt 0.875000 0.500000
vt 0.875000 0.750000
s 0
f 41/121/11 42/122/11 44/123/11 43/124/11
f 43/124/12 44/123/12 48/125/12 47/126/12
f 47/126/13 48/125/13 46/127/13 45/128/13
f 45/128/14 46/127/14 42/129/14 41/130/14
f 43/131/15 47/126/15 45/128/15 41/132/15
f 48/125/16 44/133/16 42/134/16 46/127/16
o UCX_2_Cube.003
v 80.528397 -66.041161 44.388687
v 80.528381 31.319296 44.388668
v 80.528397 -66.041161 35.264835
v 80.528381 31.319294 35.264816
v 71.404541 -66.041168 44.388687
v 71.404526 31.319292 44.388668
v 71.404541 -66.041168 35.264835
v 71.404526 31.319290 35.264816
vn 1.0000 -0.0000 -0.0000
vn -0.0000 -0.0000 -1.0000
vn -1.0000 -0.0000 -0.0000
vn -0.0000 -0.0000 1.0000
vn -0.0000 -1.0000 -0.0000
vn -0.0000 1.0000 -0.0000
vt 0.375000 0.000000
vt 0.375000 0.250000
vt 0.625000 0.250000
vt 0.625000 0.000000
vt 0.375000 0.500000
vt 0.625000 0.500000
vt 0.375000 0.750000
vt 0.625000 0.750000
vt 0.375000 1.000000
vt 0.625000 1.000000
vt 0.125000 0.500000
vt 0.125000 0.750000
vt 0.875000 0.750000
vt 0.875000 0.500000
s 0
f 49/135/17 51/136/17 52/137/17 50/138/17
f 51/136/18 55/139/18 56/140/18 52/137/18
f 55/139/19 53/141/19 54/142/19 56/140/19
f 53/141/20 49/143/20 50/144/20 54/142/20
f 51/145/21 49/146/21 53/141/21 55/139/21
f 56/140/22 54/142/22 50/147/22 52/148/22
o UCX_3_Cube.004
v -89.986282 -66.041214 -44.388664
v -89.986298 31.319235 -44.388683
v -89.986282 -66.041214 -35.264812
v -89.986298 31.319237 -35.264832
v -80.862427 -66.041214 -44.388664
v -80.862442 31.319239 -44.388683
v -80.862427 -66.041214 -35.264812
v -80.862442 31.319241 -35.264832
vn -1.0000 -0.0000 -0.0000
vn -0.0000 -0.0000 1.0000
vn 1.0000 -0.0000 -0.0000
vn -0.0000 -0.0000 -1.0000
vn -0.0000 -1.0000 -0.0000
vn -0.0000 1.0000 -0.0000
vt 0.375000 0.000000
vt 0.375000 0.250000
vt 0.625000 0.250000
vt 0.625000 0.000000
vt 0.375000 0.500000
vt 0.625000 0.500000
vt 0.375000 0.750000
vt 0.625000 0.750000
vt 0.375000 1.000000
vt 0.625000 1.000000
vt 0.125000 0.500000
vt 0.125000 0.750000
vt 0.875000 0.750000
vt 0.875000 0.500000
s 0
f 57/149/23 59/150/23 60/151/23 58/152/23
f 59/150/24 63/153/24 64/154/24 60/151/24
f 63/153/25 61/155/25 62/156/25 64/154/25
f 61/155/26 57/157/26 58/158/26 62/156/26
f 59/159/27 57/160/27 61/155/27 63/153/27
f 64/154/28 62/156/28 58/161/28 60/162/28
o UCX_4_Cube.005
v -89.986282 -66.041206 44.388687
v -89.986298 31.319254 44.388668
v -89.986282 -66.041206 35.264835
v -89.986298 31.319252 35.264816
v -80.862427 -66.041199 44.388687
v -80.862442 31.319258 44.388668
v -80.862427 -66.041206 35.264835
v -80.862442 31.319252 35.264816
vn -1.0000 -0.0000 -0.0000
vn -0.0000 -0.0000 -1.0000
vn 1.0000 -0.0000 -0.0000
vn -0.0000 -0.0000 1.0000
vn -0.0000 -1.0000 -0.0000
vn -0.0000 1.0000 -0.0000
vt 0.375000 0.000000
vt 0.625000 0.000000
vt 0.625000 0.250000
vt 0.375000 0.250000
vt 0.625000 0.500000
vt 0.375000 0.500000
vt 0.625000 0.750000
vt 0.375000 0.750000
vt 0.625000 1.000000
vt 0.375000 1.000000
vt 0.125000 0.500000
vt 0.125000 0.750000
vt 0.875000 0.500000
vt 0.875000 0.750000
s 0
f 65/163/29 66/164/29 68/165/29 67/166/29
f 67/166/30 68/165/30 72/167/30 71/168/30
f 71/168/31 72/167/31 70/169/31 69/170/31
f 69/170/32 70/169/32 66/171/32 65/172/32
f 67/173/33 71/168/33 69/170/33 65/174/33
f 72/167/34 68/175/34 66/176/34 70/169/34
o UCX_5_Cube.006
v 80.528397 -66.041176 -44.388664
v 80.528381 31.319277 -44.388683
v 80.528397 -66.041176 -35.264812
v 80.528381 31.319279 -35.264832
v 71.404541 -66.041176 -44.388664
v 71.404526 31.319273 -44.388683
v 71.404541 -66.041176 -35.264812
v 71.404526 31.319279 -35.264832
vn 1.0000 -0.0000 -0.0000
vn -0.0000 -0.0000 1.0000
vn -1.0000 -0.0000 -0.0000
vn -0.0000 -0.0000 -1.0000
vn -0.0000 -1.0000 -0.0000
vn -0.0000 1.0000 -0.0000
vt 0.375000 0.000000
vt 0.625000 0.000000
vt 0.625000 0.250000
vt 0.375000 0.250000
vt 0.625000 0.500000
vt 0.375000 0.500000
vt 0.625000 0.750000
vt 0.375000 0.750000
vt 0.625000 1.000000
vt 0.375000 1.000000
vt 0.125000 0.500000
vt 0.125000 0.750000
vt 0.875000 0.500000
vt 0.875000 0.750000
s 0
f 73/177/35 74/178/35 76/179/35 75/180/35
f 75/180/36 76/179/36 80/181/36 79/182/36
f 79/182/37 80/181/37 78/183/37 77/184/37
f 77/184/38 78/183/38 74/185/38 73/186/38
f 75/187/39 79/182/39 77/184/39 73/188/39
f 80/181/40 76/189/40 74/190/40 78/183/40
